<?xml version="1.0" encoding="iso-8859-1"?>
<!-- Generator: Adobe Illustrator 19.0.0, SVG Export Plug-In . SVG Version: 6.00 Build 0)  -->
<svg version="1.1" id="Layer_1" xmlns="http://www.w3.org/2000/svg" xmlns:xlink="http://www.w3.org/1999/xlink" x="0px" y="0px"
	 viewBox="0 0 512.129 512.129" style="enable-background:new 0 0 512.129 512.129;" xml:space="preserve">
<g>
	<g>
		<path d="M510.398,67.375c-0.454-4.348-4.12-7.651-8.492-7.65c-67.748,0-99.644,36.287-111.456,54.633
			c-5.012-7.919-10.372-15.811-16.394-23.742c-0.6-0.7-1.117-1.367-1.65-2.042c-0.307-0.659-0.691-1.28-1.142-1.85
			c-6.565-8.344-13.61-16.3-21.1-23.825c-54.433-54.333-112.917-60.425-168.6-17.142c-6.653,5.286-13.018,10.924-19.067,16.892
			c-6.988,6.99-13.56,14.383-19.683,22.142c-0.438,0.395-0.836,0.83-1.192,1.3c-1.05,1.4-2.1,2.725-3.417,4.375l-1.45,1.933
			c-1.8,2.4-3.592,4.792-5.217,7.175c-3.618,5.039-6.994,10.175-9.896,14.726C109.8,95.937,77.898,59.725,10.223,59.725
			c-4.372-0.001-8.038,3.302-8.492,7.65C1.071,73.8-13.614,224.427,55.915,313.108c0.893,100.388,90.319,181.817,200.15,181.817
			s199.257-81.429,200.15-181.817C525.744,224.427,511.058,73.8,510.398,67.375z M475.256,79.221
			c-17.024,14.862-30.485,33.365-39.383,54.138c-4.715,12.112-10.036,23.978-15.943,35.555c-4.485-9.896-9.347-19.79-14.957-30.139
			c-1.379-2.552-2.865-5.163-4.365-7.775C402.313,127.208,420.913,89.11,475.256,79.221z M111.585,131.133L111.585,131.133
			c-1.508,2.619-3.15,5.227-4.571,7.834c-4,7.3-7.725,14.633-11.017,21.642c-1.346,2.743-2.566,5.51-3.81,8.273
			c-5.904-11.566-11.221-23.422-15.931-35.523c-8.899-20.773-22.359-39.276-39.383-54.138
			C91.802,89.216,110.225,128.063,111.585,131.133z M17.681,85.329c18.526,14.301,33.208,32.982,42.725,54.363
			c6.221,16.945,14.057,33.253,23.4,48.698c-1.489,3.706-2.904,7.319-4.125,10.685c-0.175,0.417-0.325,0.817-0.592,1.592
			c-1.133,3.125-2.275,6.317-3.292,9.358c-8.683,24.531-14.754,49.91-18.112,75.716C16.71,218.516,16.072,123.001,17.681,85.329z
			 M256.065,477.858c-100.975,0-183.125-74.583-183.125-166.258c0.02-7.701,0.547-15.393,1.575-23.025
			c3.187-24.909,9.035-49.404,17.442-73.067c0.992-2.975,2.083-6.033,3-8.583c0.175-0.417,0.325-0.817,0.592-1.592
			c2.859-7.85,6.25-16.175,10.375-25.483c1.742-3.958,3.483-7.834,5.458-11.85c3.209-6.833,6.775-13.85,10.608-20.85
			c3.425-6.275,7.133-12.633,11.017-18.867c3.292-5.275,7.675-12.175,12.517-18.925c1.592-2.325,3.233-4.517,4.883-6.708
			l1.292-1.742c0.933-1.158,1.825-2.275,2.7-3.417c0.337-0.312,0.649-0.649,0.933-1.008c5.937-7.61,12.332-14.852,19.15-21.683
			c5.589-5.514,11.47-10.724,17.617-15.608C240.94,21.2,289.79,26.733,338.123,74.999c6.79,6.82,13.187,14.02,19.158,21.567
			c0.282,0.604,0.632,1.174,1.042,1.7l0.542,0.692c0.733,0.933,1.442,1.842,1.933,2.383c6.561,8.661,12.678,17.651,18.325,26.934
			c3.942,6.333,7.583,12.592,10.842,18.617c6.158,11.358,11.467,22.142,16.25,32.975c4.308,9.717,7.6,17.808,10.408,25.45
			c0.09,0.502,0.224,0.996,0.4,1.475c1.058,2.842,2.125,5.742,3.108,8.833c8.478,23.663,14.349,48.18,17.508,73.117
			c1.013,7.578,1.531,15.213,1.55,22.858C439.19,403.275,357.04,477.858,256.065,477.858z M454.44,285.746
			c-3.313-25.745-9.387-51.059-18.116-75.504c-0.925-2.942-2.025-5.958-3.125-8.917c-0.15-0.567-0.341-1.167-0.575-1.808
			c-1.298-3.59-2.724-7.292-4.279-11.157c9.332-15.437,17.161-31.735,23.379-48.668c9.517-21.381,24.199-40.062,42.725-54.363
			C496.057,123.002,495.418,218.523,454.44,285.746z"/>
	</g>
</g>
<g>
	<g>
		<path d="M187.798,238.925c-32.99,0-59.733,26.744-59.733,59.733c0.04,32.973,26.76,59.693,59.733,59.733
			c32.99,0,59.733-26.744,59.733-59.733S220.788,238.925,187.798,238.925z M187.798,341.325c-23.564,0-42.667-19.103-42.667-42.667
			c0.028-23.553,19.114-42.639,42.667-42.667c23.564,0,42.667,19.103,42.667,42.667S211.362,341.325,187.798,341.325z"/>
	</g>
</g>
<g>
	<g>
		<path d="M187.798,273.058c-14.138,0-25.6,11.461-25.6,25.6c0.015,14.132,11.468,25.585,25.6,25.6c14.138,0,25.6-11.462,25.6-25.6
			S201.936,273.058,187.798,273.058z M187.798,307.191c-4.713,0-8.533-3.82-8.533-8.533c0.003-4.711,3.822-8.53,8.533-8.533
			c4.713,0,8.533,3.82,8.533,8.533S192.511,307.191,187.798,307.191z"/>
	</g>
</g>
<g>
	<g>
		<path d="M324.331,238.925c-32.99,0-59.733,26.744-59.733,59.733s26.744,59.733,59.733,59.733s59.733-26.744,59.733-59.733
			C384.025,265.685,357.305,238.965,324.331,238.925z M324.331,341.325c-23.564,0-42.667-19.103-42.667-42.667
			s19.102-42.667,42.667-42.667c23.564,0,42.667,19.103,42.667,42.667C366.97,322.211,347.884,341.297,324.331,341.325z"/>
	</g>
</g>
<g>
	<g>
		<path d="M324.331,273.058c-14.138,0-25.6,11.461-25.6,25.6s11.462,25.6,25.6,25.6c14.138,0,25.6-11.462,25.6-25.6
			C349.916,284.526,338.463,273.074,324.331,273.058z M324.331,307.191c-4.713,0-8.533-3.82-8.533-8.533s3.82-8.533,8.533-8.533
			s8.533,3.82,8.533,8.533C332.861,303.37,329.043,307.188,324.331,307.191z"/>
	</g>
</g>
<g>
	<g>
		<path d="M229.606,207.292c-5.825-5.848-12.734-10.505-20.342-13.708c-15.934-6.678-33.881-6.681-49.817-0.009
			c-7.61,3.208-14.521,7.867-20.35,13.717c-3.302,3.362-3.254,8.764,0.108,12.066c3.319,3.26,8.639,3.26,11.958,0
			c4.278-4.286,9.346-7.702,14.925-10.058c11.688-4.889,24.848-4.886,36.533,0.009c5.576,2.352,10.642,5.766,14.916,10.05
			c3.332,3.332,8.735,3.333,12.067,0.001C232.938,216.027,232.938,210.624,229.606,207.292z"/>
	</g>
</g>
<g>
	<g>
		<path d="M234.806,138.533c-5.623-3.242-11.682-5.661-17.992-7.183c-14.003-3.367-28.605-3.367-42.608,0
			c-6.31,1.522-12.369,3.941-17.992,7.183c-4.053,2.409-5.385,7.647-2.977,11.7c2.4,4.037,7.61,5.378,11.66,3
			c4.202-2.409,8.729-4.2,13.442-5.316c11.288-2.7,23.054-2.7,34.342,0c4.713,1.116,9.24,2.907,13.442,5.316
			c4.064,2.39,9.296,1.034,11.686-3.03C240.193,146.15,238.85,140.932,234.806,138.533z"/>
	</g>
</g>
<g>
	<g>
		<path d="M294.567,77.992c-0.015-0.009-0.029-0.017-0.044-0.026c-5.619-3.234-11.672-5.647-17.975-7.167
			c-14.003-3.367-28.605-3.367-42.608,0c-6.303,1.52-12.356,3.933-17.975,7.167c-4.057,2.4-5.4,7.635-3,11.692
			c2.391,4.041,7.596,5.392,11.65,3.025h0c4.207-2.41,8.74-4.201,13.458-5.316c11.286-2.717,23.056-2.717,34.342,0
			c4.718,1.116,9.251,2.906,13.458,5.316c4.057,2.401,9.292,1.058,11.692-2.998C299.966,85.628,298.624,80.393,294.567,77.992z"/>
	</g>
</g>
<g>
	<g>
		<path d="M373.031,207.292c-5.825-5.848-12.734-10.505-20.342-13.708c-15.934-6.678-33.881-6.681-49.816-0.009
			c-7.61,3.208-14.522,7.867-20.35,13.717c-3.311,3.353-3.277,8.755,0.076,12.066c3.323,3.282,8.667,3.281,11.991,0
			c4.278-4.286,9.346-7.702,14.925-10.058c11.688-4.889,24.848-4.886,36.533,0.009c5.576,2.352,10.642,5.765,14.917,10.05
			c3.362,3.302,8.764,3.254,12.066-0.108C376.292,215.931,376.292,210.611,373.031,207.292z"/>
	</g>
</g>
<g>
	<g>
		<path d="M355.915,138.533c-5.623-3.242-11.682-5.661-17.992-7.183c-14.003-3.367-28.605-3.367-42.608,0
			c-6.31,1.522-12.369,3.941-17.992,7.183c-4.051,2.412-5.379,7.652-2.967,11.702c2.4,4.03,7.603,5.369,11.65,2.998
			c4.201-2.409,8.729-4.2,13.442-5.316c11.288-2.7,23.054-2.7,34.342,0c4.713,1.116,9.24,2.907,13.442,5.316
			c4.063,2.391,9.296,1.036,11.687-3.027C361.304,146.152,359.961,140.932,355.915,138.533z"/>
	</g>
</g>
<g>
	<g>
		<path d="M338.898,377.958c-3.331-3.332-8.732-3.333-12.064-0.002c-0.001,0.001-0.002,0.002-0.003,0.003
			c-3.332,3.33-3.333,8.732-0.003,12.064c0.001,0.001,0.002,0.002,0.003,0.003c1.986,2.308,3.421,5.037,4.197,7.981
			c-6.275-2.567-12.69-4.778-19.214-6.623c-8.842-2.44-17.841-4.272-26.933-5.483c-19.128-2.533-38.506-2.533-57.633,0
			c-9.092,1.212-18.091,3.044-26.933,5.483c-6.542,1.85-12.975,4.068-19.267,6.644c0.804-2.984,2.281-5.744,4.317-8.069
			c3.294-3.37,3.232-8.772-0.138-12.066c-3.342-3.266-8.689-3.237-11.995,0.066c-7.617,7.617-17.633,28.583-1.067,53.433
			c2.58,3.944,7.868,5.05,11.812,2.47c3.944-2.58,5.05-7.868,2.47-11.812c-0.027-0.042-0.055-0.084-0.083-0.125
			c-1.334-1.99-2.497-4.089-3.477-6.274c7.132-3.135,14.483-5.748,21.994-7.818c8.087-2.234,16.317-3.91,24.633-5.017
			c17.623-2.333,35.477-2.333,53.1,0c8.316,1.107,16.547,2.783,24.633,5.017c7.504,2.068,14.849,4.678,21.975,7.81
			c-0.97,2.189-2.127,4.291-3.458,6.281c-2.64,3.904-1.616,9.209,2.287,11.849c3.904,2.64,9.209,1.616,11.849-2.287
			c0.021-0.032,0.042-0.063,0.063-0.095C356.531,406.541,346.514,385.575,338.898,377.958z"/>
	</g>
</g>
<g>
	<g>
		<path d="M287.098,437.358c-8.794-7.051-19.762-10.833-31.033-10.7c-11.271-0.133-22.239,3.649-31.033,10.7
			c-3.636,3.001-4.151,8.381-1.15,12.017c3.001,3.636,8.381,4.151,12.017,1.15c12.015-8.767,28.318-8.767,40.333,0
			c3.636,3.001,9.016,2.486,12.017-1.15C291.249,445.739,290.734,440.359,287.098,437.358z"/>
	</g>
</g>
<g>
</g>
<g>
</g>
<g>
</g>
<g>
</g>
<g>
</g>
<g>
</g>
<g>
</g>
<g>
</g>
<g>
</g>
<g>
</g>
<g>
</g>
<g>
</g>
<g>
</g>
<g>
</g>
<g>
</g>
</svg>
