<?xml version="1.0"?>
<svg xmlns="http://www.w3.org/2000/svg" viewBox="0 0 64 64" width="512" height="512"><g id="Outline"><g><path d="M48.759,7.114A1,1,0,1,0,47.64,8.772,28,28,0,0,1,19.7,57.159a1,1,0,1,0-.879,1.8A29.694,29.694,0,0,0,32,62,30,30,0,0,0,48.759,7.114Z"/><path d="M4,32A28.032,28.032,0,0,1,32,4,27.719,27.719,0,0,1,44.3,6.841a1,1,0,1,0,.879-1.8A29.688,29.688,0,0,0,32,2,30,30,0,0,0,15.241,56.886a1,1,0,1,0,1.119-1.658A27.992,27.992,0,0,1,4,32Z"/><path d="M12.208,15.149A25.993,25.993,0,0,0,48.852,51.792a1,1,0,0,0-1.3-1.522A23.994,23.994,0,0,1,13.729,16.446a1,1,0,1,0-1.521-1.3Z"/><path d="M51.031,49.2a1,1,0,0,0,.761-.352A25.993,25.993,0,0,0,15.148,12.208a1,1,0,0,0,1.3,1.522A23.994,23.994,0,0,1,50.271,47.554a1,1,0,0,0,.76,1.649Z"/><path d="M39.485,49.857a1,1,0,0,0,1.372-.343,6.828,6.828,0,0,0,.332-6.405,1,1,0,1,0-1.812.845,4.832,4.832,0,0,1-.234,4.532A1,1,0,0,0,39.485,49.857Z"/><circle cx="19" cy="35" r="1"/><circle cx="36" cy="25" r="1"/><circle cx="36" cy="11" r="1"/><circle cx="24" cy="30" r="1"/><circle cx="38" cy="53" r="1"/><circle cx="40" cy="35" r="1"/><path d="M32.989,29.1a2.9,2.9,0,0,0-2.344.838.933.933,0,0,1-1.29,0,1,1,0,0,0-1.414,1.414,2.912,2.912,0,0,0,4.118,0,.916.916,0,0,1,.733-.262.9.9,0,0,1,.669.4,1,1,0,0,0,1.664-1.11A2.9,2.9,0,0,0,32.989,29.1Z"/><path d="M28,17a1,1,0,0,0,0,2h1.184a2.746,2.746,0,0,0,.117.285l-.836.837a1,1,0,1,0,1.414,1.414l.836-.837a2.746,2.746,0,0,0,.285.117V22a1,1,0,0,0,2,0V20.816A3,3,0,0,0,34.816,19H36a1,1,0,0,0,0-2H34.816a2.746,2.746,0,0,0-.117-.285l.836-.837a1,1,0,1,0-1.414-1.414l-.836.837A2.746,2.746,0,0,0,33,15.184V14a1,1,0,0,0-2,0v1.184a2.746,2.746,0,0,0-.285.117l-.836-.837a1,1,0,1,0-1.414,1.414l.836.837a2.746,2.746,0,0,0-.117.285Zm4,2a1,1,0,1,1,1-1A1,1,0,0,1,32,19Z"/><path d="M50,43.414a1,1,0,0,0,.707-1.707l-.836-.836a2.746,2.746,0,0,0,.117-.285h1.184a1,1,0,0,0,0-2H49.988c-.035-.1-.073-.193-.117-.286l.836-.836a1,1,0,0,0-1.414-1.414l-.836.836c-.093-.044-.188-.081-.285-.116V35.586a1,1,0,0,0-2,0V36.77a3,3,0,0,0-1.816,1.816H43.172a1,1,0,0,0,0,2h1.184c.035.1.072.192.116.285l-.836.836a1,1,0,0,0,1.414,1.415l.837-.837a2.746,2.746,0,0,0,.285.117v1.184a1,1,0,0,0,2,0V42.4a2.84,2.84,0,0,0,.285-.117l.836.836A1,1,0,0,0,50,43.414Zm-2.828-4.828a1,1,0,1,1-1,1A1,1,0,0,1,47.172,38.586Z"/><path d="M39.03,24.243A1,1,0,0,0,40,25a.968.968,0,0,0,.243-.03l1.282-.32a6.989,6.989,0,0,0,.878,1.534l-1.109,1.109a1,1,0,1,0,1.414,1.414L43.816,27.6a6.973,6.973,0,0,0,1.535.878l-.321,1.281a1,1,0,0,0,.728,1.213A.968.968,0,0,0,46,31a1,1,0,0,0,.969-.757l.319-1.279A6.964,6.964,0,0,0,48,29a3.018,3.018,0,0,0,.469-.047l.611,1.438A1,1,0,0,0,50,31a.981.981,0,0,0,.391-.08,1,1,0,0,0,.529-1.311l-.689-1.622A2.983,2.983,0,0,0,50.816,27H52a1,1,0,0,0,0-2H50.816a2.994,2.994,0,0,0-.452-.825L50.8,23.6A1,1,0,0,0,49.2,22.4l-.521.689A3.011,3.011,0,0,0,48,23a1,1,0,0,1-1-1,2.953,2.953,0,0,0-.116-.78l.614-.353a1,1,0,0,0-1-1.734l-.758.436A2.984,2.984,0,0,0,45,19.184V18a1,1,0,0,0-2,0v1.184a3,3,0,0,0-.744.385l-.758-.436a1,1,0,1,0-1,1.734l.614.353A2.953,2.953,0,0,0,41,22a6.945,6.945,0,0,0,.036.71l-1.278.32A1,1,0,0,0,39.03,24.243ZM48,25a1,1,0,0,1,0,2,5.006,5.006,0,0,1-5-5,1,1,0,0,1,2,0A3,3,0,0,0,48,25Z"/><path d="M15.205,43.383a1,1,0,0,0,1.265-.632A2.985,2.985,0,0,0,15.3,39.329a.979.979,0,0,1-.24-1.4,1,1,0,1,0-1.6-1.2,2.98,2.98,0,0,0,.731,4.267.982.982,0,0,1,.386,1.125A1,1,0,0,0,15.205,43.383Z"/><path d="M13.242,23.03a1,1,0,1,0-.484,1.94l1.278.32A6.93,6.93,0,0,0,14,26a3.03,3.03,0,0,0,.047.469l-1.438.611A1,1,0,0,0,13,29a.981.981,0,0,0,.391-.08l1.622-.689a3.01,3.01,0,0,0,.987.585V30a1,1,0,0,0,2,0V28.816a3.018,3.018,0,0,0,.825-.451l.571.432A1,1,0,1,0,20.6,27.2l-.689-.522A3,3,0,0,0,20,26a1,1,0,0,1,1-1,2.953,2.953,0,0,0,.78-.116l.353.614A1,1,0,0,0,23,26a.986.986,0,0,0,.5-.133,1,1,0,0,0,.369-1.365l-.436-.758A2.984,2.984,0,0,0,23.816,23H25a1,1,0,0,0,0-2H23.816a2.984,2.984,0,0,0-.385-.744l.436-.757a1,1,0,0,0-1.734-1l-.353.615A2.966,2.966,0,0,0,21,19a6.964,6.964,0,0,0-.711.036l-.319-1.279a1,1,0,0,0-1.94.486l.321,1.281a6.973,6.973,0,0,0-1.535.878l-1.109-1.109a1,1,0,0,0-1.414,1.414L15.4,21.816a6.989,6.989,0,0,0-.878,1.534ZM22,22a1,1,0,0,1-1,1,3,3,0,0,0-3,3,1,1,0,0,1-2,0,5.006,5.006,0,0,1,5-5A1,1,0,0,1,22,22Z"/><path d="M24.466,36.764l.032-.493a1,1,0,0,0-.933-1.063.988.988,0,0,0-1.063.933l-.032.494a2.949,2.949,0,0,0,.8,2.217c-.147.135-.288.275-.423.422a2.983,2.983,0,0,0-2.216-.8l-.493.032a1,1,0,0,0-.934,1.062.987.987,0,0,0,1.063.934l.493-.032a.952.952,0,0,1,.923.531,6.947,6.947,0,0,0-.53,1.537,2.956,2.956,0,0,0-2.864.758,1,1,0,0,0,1.414,1.416.956.956,0,0,1,1.11-.181l.215.107a6.982,6.982,0,0,0,.31,1.517,2.953,2.953,0,0,0-2.1,2.09,1,1,0,0,0,.707,1.225,1.015,1.015,0,0,0,.26.034,1,1,0,0,0,.965-.741.961.961,0,0,1,.871-.712l.245-.014a7.066,7.066,0,0,0,.986,1.115,2.95,2.95,0,0,0-.8,2.218l.032.493a1,1,0,0,0,1,.935c.022,0,.044,0,.066,0a1,1,0,0,0,.933-1.063l-.032-.492A.958.958,0,0,1,25,50.314a6.94,6.94,0,0,0,2.447.658.961.961,0,0,1,0,1.062l-.274.411a1,1,0,0,0,1.664,1.11l.274-.412a2.951,2.951,0,0,0,.414-2.316A6.905,6.905,0,0,0,31,50.315a.958.958,0,0,1,.53.921l-.032.493a1,1,0,0,0,.933,1.063c.022,0,.044,0,.066,0a1,1,0,0,0,1-.935l.032-.494a2.948,2.948,0,0,0-.8-2.212q.221-.2.421-.423a2.947,2.947,0,0,0,2.02.806c.064,0,.129,0,.194-.006l.493-.032a1,1,0,0,0,.934-1.062.986.986,0,0,0-1.063-.934l-.493.032a.951.951,0,0,1-.919-.525,6.972,6.972,0,0,0,.662-2.46.962.962,0,0,1,1.055.008l.411.275a1,1,0,1,0,1.11-1.664l-.411-.274a2.955,2.955,0,0,0-3.288,0l-.411.274A1,1,0,0,0,33,44a5,5,0,1,1-.669-2.5.97.97,0,0,0,.9.5,1,1,0,0,0,.864-.558L34.312,41a.956.956,0,0,1,.924-.534l.493.032a.989.989,0,0,0,1.063-.934,1,1,0,0,0-.934-1.062l-.493-.032a2.987,2.987,0,0,0-2.214.792,6.957,6.957,0,0,0-1.118-.977l.014-.242a.962.962,0,0,1,.712-.872,1,1,0,1,0-.518-1.931,2.957,2.957,0,0,0-2.09,2.1,6.954,6.954,0,0,0-1.595-.312.958.958,0,0,1,0-1.063l.274-.411a1,1,0,0,0-1.664-1.11l-.274.412a2.947,2.947,0,0,0-.414,2.314A6.931,6.931,0,0,0,25,37.686.957.957,0,0,1,24.466,36.764Z"/><path d="M27,43a1,1,0,0,0-2,0,4,4,0,0,0,4,4,1,1,0,0,0,0-2A2,2,0,0,1,27,43Z"/><circle cx="30" cy="43" r="1"/></g></g></svg>
