<?xml version="1.0" encoding="iso-8859-1"?>
<!-- Generator: Adobe Illustrator 16.0.0, SVG Export Plug-In . SVG Version: 6.00 Build 0)  -->
<!DOCTYPE svg PUBLIC "-//W3C//DTD SVG 1.1//EN" "http://www.w3.org/Graphics/SVG/1.1/DTD/svg11.dtd">
<svg version="1.1" id="Capa_1" xmlns="http://www.w3.org/2000/svg" xmlns:xlink="http://www.w3.org/1999/xlink" x="0px" y="0px"
	 width="358.69px" height="358.69px" viewBox="0 0 358.69 358.69" style="enable-background:new 0 0 358.69 358.69;"
	 xml:space="preserve">
<g>
	<g>
		<path d="M355.544,65.266H3.135C1.402,65.266,0,66.666,0,68.413v221.871c0,1.729,1.402,3.141,3.135,3.141h352.409
			c1.729,0,3.146-1.405,3.146-3.141V68.407C358.69,66.666,357.285,65.266,355.544,65.266z M340.238,275.951H18.447v-83.731h60.844
			c1.36,0,2.534-0.937,2.84-2.245l7.587-31.712l6.188,31.598c0.264,1.363,1.462,2.372,2.858,2.372h19.473
			c1.444,0,2.688-1.081,2.892-2.522l9.824-68.761l18.477,124.287c0.204,1.423,1.441,2.486,2.879,2.486h0.093
			c1.474-0.055,2.693-1.195,2.816-2.673l4.636-52.83h10.956c1.435,0,2.657-1.045,2.892-2.474l6.05-37.989l7.674,36.212
			c0.288,1.345,1.478,2.294,2.858,2.294h69.521c1.051,3.543,4.275,6.113,8.131,6.113c4.707,0,8.526-3.808,8.526-8.504
			c0-4.719-3.819-8.521-8.526-8.521c-3.483,0-6.449,2.09-7.782,5.08h-67.5l-10.449-49.296c-0.288-1.366-1.567-2.306-2.933-2.306
			c-1.408,0.03-2.594,1.063-2.816,2.459l-8.134,51.083h-11.136c-1.507,0-2.786,1.165-2.915,2.673l-2.705,30.858l-17.783-119.643
			c-0.213-1.426-1.433-2.492-2.889-2.492l0,0c-1.459,0-2.687,1.078-2.891,2.504l-12.304,86.088h-14.523l-8.313-42.418
			c-0.258-1.348-1.432-2.33-2.798-2.351c-1.543,0.051-2.582,0.897-2.903,2.233l-10.181,42.547H18.441V82.734h321.792v193.217
			H340.238z"/>
	</g>
</g>
<g>
</g>
<g>
</g>
<g>
</g>
<g>
</g>
<g>
</g>
<g>
</g>
<g>
</g>
<g>
</g>
<g>
</g>
<g>
</g>
<g>
</g>
<g>
</g>
<g>
</g>
<g>
</g>
<g>
</g>
</svg>
