<svg height="511pt" viewBox="-29 1 511 511.99998" width="511pt" xmlns="http://www.w3.org/2000/svg"><path d="m179.558594 255.050781c12.886718-4.3125 22.222656-16.148437 22.691406-28.78125.085938-2.226562-1.652344-4.097656-3.878906-4.179687-2.21875-.085938-4.09375 1.652344-4.175782 3.878906-.34375 9.203125-7.578124 18.21875-17.199218 21.4375-9.050782 3.027344-20.003906 1.410156-29.296875-4.324219-8.125-5.015625-15.296875-13.234375-20.742188-23.769531-1.019531-1.976562-3.453125-2.75-5.429687-1.730469-1.976563 1.023438-2.753906 3.453125-1.730469 5.429688 6.203125 12.007812 14.164063 21.066406 23.667969 26.929687 7.480468 4.617188 15.917968 7.015625 24.042968 7.015625 4.15625 0 8.226563-.628906 12.050782-1.90625zm0 0"/><path d="m340.363281 251.15625c16.59375-13.160156 23.488281-37.195312 16.398438-57.152344-3.210938-9.035156-9.4375-17.359375-17.53125-23.445312-14.085938-10.585938-30.964844-13.496094-46.304688-7.976563-17.160156 6.175781-29.84375 19.738281-33.929687 36.285157-5.078125 20.5625 4.167968 43.792968 21.984375 55.246093 8.152343 5.238281 17.800781 7.816407 27.457031 7.816407 11.453125 0 22.925781-3.628907 31.925781-10.773438zm-73.539062-50.355469c3.382812-13.714843 14.433593-25.453125 28.832031-30.632812 4.1875-1.507813 8.523438-2.25 12.878906-2.25 8.898438 0 17.878906 3.09375 25.847656 9.085937 6.847657 5.144532 12.09375 12.140625 14.78125 19.699219 5.972657 16.808594.164063 37.054687-13.808593 48.140625-13.976563 11.082031-35.011719 12.128906-50.019531 2.484375-15.003907-9.640625-22.789063-29.210937-18.511719-46.527344zm0 0"/><path d="m328.699219 203.828125c-1.367188-3.847656-3.898438-7.238281-7.320313-9.808594-5.878906-4.421875-12.960937-5.621093-19.425781-3.292969-7.113281 2.558594-12.382813 8.214844-14.089844 15.132813-2.125 8.585937 1.738281 18.292969 9.179688 23.074219 3.40625 2.1875 7.4375 3.265625 11.472656 3.265625 4.78125 0 9.574219-1.515625 13.335937-4.5 6.929688-5.496094 9.8125-15.539063 6.847657-23.871094zm-11.859375 17.554687c-4.246094 3.367188-10.878906 3.699219-15.4375.769532-4.554688-2.929688-7.011719-9.101563-5.710938-14.359375 1.042969-4.230469 4.488282-7.859375 8.992188-9.480469 1.253906-.453125 2.554687-.675781 3.867187-.675781 2.730469 0 5.507813.964843 7.984375 2.828125 2.121094 1.59375 3.746094 3.746094 4.570313 6.0625 1.8125 5.101562-.019531 11.488281-4.265625 14.855468zm0 0"/><path d="m449.960938 242.675781c-5.09375-9.875-17.085938-17.429687-28.394532-15.085937 3.628906-41.894532-4.996094-84.824219-25.378906-121.792969-20.78125-37.695313-53.167969-68.675781-91.191406-87.238281-40.78125-19.90625-83.8125-23.886719-124.441406-11.515625-24.929688 7.59375-48.28125 20.921875-67.523438 38.546875-34.898438 31.957031-58.363281 79.484375-64.378906 130.398437-2.671875 22.613281-2.097656 46.027344 1.605468 69.617188-20.082031-1.808594-40.480468 11.378906-47.265624 31.007812-6.816407 19.730469.730468 43.355469 17.949218 56.179688 9.253906 6.894531 20.757813 10.40625 32.382813 10.40625 9.167969 0 18.414062-2.183594 26.699219-6.621094 5.238281 10.621094 10.835937 21.042969 16.316406 31.234375 10.445312 19.421875 21.242187 39.503906 29.152344 60.324219 1.382812 3.636719 2.730468 7.421875 4.035156 11.082031 6.132812 17.234375 12.476562 35.054688 25.785156 48.261719 22.253906 22.097656 56.058594 24.21875 88.773438 24.5 1.3125.011719 2.625.019531 3.949218.019531 23.566406 0 49.179688-2.148438 64.914063-19.894531 10.40625-11.738281 13.582031-27.15625 16.65625-42.066407.726562-3.535156 1.480469-7.191406 2.3125-10.675781 7.492187-31.394531 24.6875-59.933593 41.3125-87.535156 3.636719-6.035156 7.304687-12.132813 10.90625-18.304687 4.191406 1.53125 8.691406 2.289062 13.296875 2.289062 11.550781 0 23.707031-4.683594 33.007812-13.363281 11.054688-10.308594 18.542969-25.449219 22.253906-44.996094 2.789063-14.707031 1.921876-25.757813-2.734374-34.777344zm-32.207032 14.882813c1.417969-.613282 3.464844-.246094 5.09375.914062 1.648438 1.175782 3.089844 3.152344 4.277344 5.878906 3.902344 8.964844 2.550781 20.21875-3.367188 28.003907-5.367187 7.054687-14.476562 11.242187-23.351562 10.949219 3.09375-6.425782 5.957031-12.957032 8.472656-19.613282 3.191406-8.449218 5.796875-17.09375 7.855469-25.863281.34375-.046875.6875-.125 1.019531-.269531zm-132.167968-180.554688c7.28125.328125 16.269531 1.441406 21.183593 7.207032 3.878907 4.546874 4.691407 11.5 5.191407 18.230468.542968 7.3125.460937 15.320313-4.289063 19.257813-3.523437 2.925781-9.074219 3.109375-14.9375 3.042969l-49.628906-.554688.632812-43.484375c13.726563-3.070313 27.792969-4.328125 41.847657-3.699219zm-46.707032 337.070313 20.191406 1.699219c-.851562 7.652343-1.964843 15.273437-3.335937 22.835937-5.761719-.34375-11.5-1.054687-17.179687-2.125zm28.230469 2.375 16.832031 1.414062-2.390625 17.792969c-.085937.660156.003907 1.296875.214844 1.886719-3.148437.535156-6.582031.90625-10.378906 1.117187-2.503907.136719-5.011719.191406-7.515625.191406 1.320312-7.421874 2.410156-14.894531 3.238281-22.402343zm22.738281 18.015625 2.136719-15.925782 17.460937 1.472657c-2.703124 5.605469-7.910156 10.503906-14.605468 13.632812-1.558594.726563-3.199219 1.371094-4.9375 1.9375.03125-.378906.015625-.753906-.054688-1.117187zm21.667969-22.371094-18.457031-1.554688 3.433594-25.605468c2.199218 1.375 4.207031 2.933594 5.988281 4.660156 6.269531 6.082031 9.574219 14.679688 9.035156 22.5zm-26.5-2.230469-17.117187-1.4375c.886718-10.214843 1.300781-20.472656 1.269531-30.703125 1.085937.011719 2.171875.039063 3.257812.101563 5.929688.335937 11.476563 1.492187 16.4375 3.367187zm-25.152344-2.113281-20.863281-1.757812.355469-24.367188c7.035156-1.539062 14.347656-2.988281 21.75-3.601562.023437 9.90625-.382813 19.835937-1.242188 29.726562zm-203.203125-230.816406c5.792969-49.019532 28.324219-94.726563 61.8125-125.398438 18.363282-16.816406 40.644532-29.53125 64.429688-36.777344 14.664062-4.46875 29.660156-6.6875 44.757812-6.6875 3.019532 0 6.042969.09375 9.070313.269532l-1.539063 105.515625c-.480468-.164063-1-.242188-1.542968-.210938-19.507813 1.101563-39.675782 2.238281-58.496094-3.324219-24.171875-7.148437-36.304688-23.390624-39.597656-36.210937-.378907-1.476563-1.558594-2.613281-3.050782-2.933594-1.488281-.324219-3.035156.222657-3.992187 1.410157-11.441407 14.1875-13.023438 33.476562-14.421875 50.488281l-.101563 1.214843c-1.332031 16.160157-3.746093 34.328126-15.609375 45.488282-3.335937 3.132812-7.351562 5.660156-11.609375 8.335937-7.191406 4.519531-14.628906 9.195313-18.886719 17.191407-6.1875 11.628906-2.910156 25.5 1.113282 37.53125 7.359375 22.011718 16.5 43.59375 27.195312 64.207031l-19.246094 13.355469c-18.347656-44.511719-25.363281-90.511719-20.285156-133.464844zm19.613282 152.511718c-15.851563 8.511719-36.625 7.230469-50.519532-3.117187-14.238281-10.609375-20.75-30.847656-15.140625-47.078125 5.75-16.632812 24.15625-28.015625 41.03125-25.363281h.039063c.84375 4.496093 1.800781 8.996093 2.867187 13.492187-6.695312-1.570312-13.941406-.640625-19.980469 2.765625-7.839843 4.421875-13.183593 12.738281-13.941406 21.710938-.1875 2.214843 1.460938 4.167969 3.679688 4.355469.113281.007812.230468.011718.34375.011718 2.074218 0 3.832031-1.585937 4.011718-3.691406.527344-6.25 4.402344-12.28125 9.867188-15.363281 5.464844-3.085938 12.628906-3.277344 18.253906-.492188.050782.023438.105469.035157.152344.054688 2.585938 9.488281 5.667969 18.957031 9.242188 28.371093-3.195313 3.625-7.644532 6.277344-12.359376 7.292969-4.988281 1.082031-10.46875.394531-15.039062-1.878906-1.992188-.992187-4.414062-.179687-5.40625 1.8125-.992188 1.996094-.179688 4.414063 1.816406 5.40625 4.300782 2.140625 9.046875 3.238281 13.816406 3.238281 2.179688 0 4.367188-.230468 6.515626-.695312 5.15625-1.113282 9.945312-3.550782 13.886718-7.007813.945313 2.292969 1.90625 4.582031 2.910156 6.867188 1.351563 3.085937 2.765626 6.148437 4.207032 9.203125-.082032.039062-.171875.058594-.253906.105468zm60.847656 107.070313c-1.320313-3.699219-2.679688-7.523437-4.089844-11.238281-8.097656-21.3125-19.027344-41.632813-29.59375-61.28125-8.027344-14.925782-16.3125-30.351563-23.253906-46.03125l23.527344-16.324219c1.675781-1.164063 2.21875-3.394531 1.265624-5.199219-11.199218-21.179687-20.734374-43.4375-28.328124-66.160156-3.660157-10.933594-6.390626-22.28125-1.648438-31.1875 3.25-6.101562 9.476562-10.015625 16.066406-14.15625 4.390625-2.761719 8.933594-5.617188 12.835938-9.289062 13.285156-12.492188 16.5625-31.746094 18.125-50.695313l.101562-1.214844c1.140625-13.890625 2.316406-28.179687 8.429688-39.652343 8.210937 18.097656 26.539062 29.300781 42.3125 33.964843 20.160156 5.960938 41.980468 4.726563 61.234375 3.640625.34375-.015625.664062-.089844.976562-.1875l-3.199219 219.628906c-6.46875.390626-13.160156-1.558593-18.332031-5.421874-5.847656-4.367188-9.90625-11.296876-10.851562-18.535157-.289063-2.207031-2.316407-3.761719-4.519531-3.472656-2.207032.289063-3.765626 2.3125-3.476563 4.519531 1.242187 9.492188 6.355469 18.21875 14.019531 23.949219 6.183594 4.617187 13.761719 7.089844 21.417969 7.089844.542969 0 1.082031-.039063 1.625-.066407l-.832031 57.117188c-18.101563-.222656-36.234375 1.421875-53.980469 4.949219-.175781.035156-.339844.097656-.503906.152343l-2.085938-5.121093c-.835937-2.0625-3.1875-3.054688-5.25-2.214844-2.0625.835937-3.054687 3.191406-2.214843 5.25l7.242187 17.808594c.636719 1.566406 2.144531 2.511719 3.734375 2.511719.507812 0 1.023438-.09375 1.519531-.296876 2.0625-.839843 3.054688-3.191406 2.214844-5.25l-2.082031-5.121093c16.871094-3.277344 34.101562-4.816407 51.289062-4.605469l-1.300781 89.234375c-26.164063-1.003906-51.570313-5.015625-68.523437-21.847656-12.007813-11.917969-18.039063-28.863281-23.871094-45.246094zm135.707031 38.070313c-3.027344-2.828126-3.730469-9.015626-1.503906-13.238282 2.113281-4.015625 5.367187-3.296875 6.441406-3.058594 4.582031 1.015626 8.902344 5.261719 9.839844 9.667969.644531 3.039063-.398438 5.59375-3.101563 7.585938-3.222656 2.382812-8.570312 1.945312-11.675781-.957031zm93.496094-126.917969c-3.574219 5.933593-7.167969 11.910156-10.695313 17.949219-.277344-.035157-.5625-.046876-.851562-.019532-11.8125.988282-23.730469.492188-35.421875-1.484375-1.980469-.335937-4.351563-.867187-5.109375-2.007812-.472656-.710938-.726563-2.316407.738281-5.914063l.289063-.703125c.890624-2.164062 1.925781-4.683593 2.167968-7.414062 3.074219-.125 6.117188-1.027344 8.742188-2.789063 7.46875-5.011718 9.789062-16.039062 4.96875-23.597656-3.550782-5.566406-9.203125-8.507812-15.507813-8.074219-6.621093.453125-12.875 4.679688-15.558593 10.519531-2.511719 5.46875-1.660157 11.683594 2.34375 17.050782 1.816406 2.433594 4.265624 4.238281 6.984374 5.402344.136719 1.617187-.703124 3.667968-1.59375 5.828124l-.300781.730469c-.835937 2.054688-3.382812 8.296875.007813 13.414063 2.785156 4.203125 7.984375 5.078125 10.484375 5.503906 8.238281 1.390625 16.589843 2.089844 24.941406 2.089844 2.632813 0 5.261719-.078125 7.890625-.214844-11.308594 20.058594-21.375 40.960938-26.769531 63.550781-.859375 3.609375-1.625 7.324219-2.367188 10.921875-2.992187 14.511719-5.816406 28.222656-14.792969 38.34375-6.351562 7.167969-14.898437 11.386719-24.425781 13.851563l.070313-15.742188c2.421875-.433593 4.738281-1.363281 6.734375-2.835937 5.238281-3.867188 7.5-9.605469 6.199219-15.746094-1.589844-7.496094-8.316407-14.167969-15.984376-15.863281-6.476562-1.433594-12.199218 1.246093-15.320312 7.171875-3.460938 6.574218-3.234375 16.933594 3.136719 22.886718 2.046875 1.914063 4.535156 3.246094 7.171875 3.988282l-.074219 17.804687c-9.84375 1.566407-20.316406 1.738281-30.269531 1.648438-2.191406-.019531-4.386719-.046875-6.582032-.089844l.863282-59.15625c8.398437 1.496094 16.914062 2.253906 25.441406 2.253906 2.648438 0 5.300781-.074219 7.953125-.21875 10.902344-.601562 19.300781-2.433593 26.421875-5.761719 9.378906-4.386718 16.523438-11.71875 19.605469-20.121093 4.453125-12.160157.53125-27.039063-9.765625-37.019531-8.5-8.242188-21.003906-13.226563-35.207032-14.03125-11.558593-.65625-22.796874 1.292968-33.410156 3.574218l.339844-23.414062c1.546875.246094 3.109375.367187 4.667969.367187 6.640625 0 13.257812-2.179687 18.542969-6.304687 7.761718-6.054688 12.144531-15.914063 11.445312-25.734375-.160156-2.21875-2.082031-3.890625-4.308594-3.734375-2.222656.160156-3.894531 2.089844-3.734375 4.308594.503907 7.066406-2.777343 14.445312-8.359375 18.804687-5.003906 3.902344-11.910156 5.417969-18.132812 4.105469l.910156-62.617188 16.078125.117188c.039063.234375.070313.46875.113281.703125 1.191406 6.34375 4.929688 11.324219 10 13.324219 1.722656.679687 3.554688 1.007812 5.402344 1.007812 4.066406 0 8.183594-1.601562 11.226562-4.558594 4.007813-3.894531 5.953126-9.925781 5.082032-15.738281-.949219-6.308594-5.785156-12.027344-12.039063-14.226563-5.351562-1.878906-10.753906-.804687-14.816406 2.949219-2.335937 2.15625-3.945313 5.128907-4.71875 8.476563l-16.207031-.117188 2.023437-138.824218 49.65625.558593c.65625.007813 1.347657.015625 2.070313.015625 5.480468 0 12.722656-.449218 18.105468-4.914062 4.96875-4.125 6.800782-10.035156 7.28125-16.253906l22.074219-.753907c.007813.101563.007813.199219.019531.304688v-.003907c.777344 9.027344 8.097657 16.757813 16.664063 17.609376.535156.050781 1.066406.078124 1.601563.078124 6.945312 0 13.761718-4.390624 16.628906-10.902343 2.980468-6.765625 1.59375-15.097657-3.445313-20.738281-5.804687-6.484376-13.804687-8.613282-20.882812-5.554688-4.738281 2.046875-8.144531 6.085938-9.699219 11.109375l-22.945312.78125c-.035157-.582031-.070313-1.160156-.113282-1.738281-.601562-8.0625-1.640625-16.46875-7.097656-22.863282-5.746094-6.738281-14.367188-8.917968-22.222656-9.695312l-1.132813-15.777344c-.15625-2.21875-2.089843-3.886718-4.308593-3.730468-2.222657.160156-3.890626 2.089843-3.734376 4.308593l1.0625 14.773438c-5.046874-.125-10.089843-.027344-15.121093.304687l-4.046875-27.195312 25.269531-1.050782c2.222656-.089843 3.953125-1.96875 3.859375-4.191406-.089844-2.226562-1.941406-3.957031-4.195312-3.863281l-29.746094 1.234375c-1.144532.046875-2.210938.578125-2.941406 1.460938-.726563.878906-1.046876 2.03125-.878907 3.160156l4.640625 31.179687c-5.214844.597657-10.402344 1.441407-15.546875 2.53125l.921875-63.398437c19.046875 2.109375 38.097656 7.703125 56.675782 16.773437 10.125 4.941407 19.828124 10.804688 29 17.464844-.003907.0625-.023438.121094-.023438.183594l-1.746094 41.988281c-.089844 2.222656 1.636719 4.101562 3.859375 4.195312.058594 0 .113281.003907.171875.003907 2.148438 0 3.933594-1.699219 4.023438-3.867188l1.519531-36.539062c20.546875 16.507812 38.011719 37.140625 50.863281 60.453125 6.566406 11.90625 11.847656 24.460937 15.855469 37.398437-3.167969-.460937-6.515625-.71875-9.902344-.269531-6.242187.820312-11.511719 4.109375-14.089843 8.796875-2.464844 4.476563-2.269532 9.675781-2.128907 13.476563l1.101563 29.605468c.003906.058594.019531.113282.023437.171875-1.28125.332031-2.523437.796875-3.699219 1.394531-5.652343 2.878907-9.027343 8.394532-9.253906 15.140626-.316406 9.390624 7.632813 18.140624 17.007813 18.730468.339843.019532.675781.03125 1.011719.03125 9.003906 0 17.375-7.472656 18.203124-16.488281v-.003906c.617188-6.738281-2.03125-12.640625-7.265624-16.1875-2.363282-1.601563-5.121094-2.613281-7.972657-3.03125 0-.019531.003907-.039063.003907-.058594l-1.101563-29.605469c-.144531-3.832031-.152344-6.949218 1.136719-9.289062 1.324218-2.410156 4.421875-4.207032 8.078125-4.691406 3.617187-.476563 7.515625.167968 11.324219.863281 8.390624 31.886719 9.128906 65.753906 1.976562 97.964843l-14.128906-.160156c-.195313-4.140625-1.242188-8.859375-4.925782-12.203125-3.566406-3.238281-8.664062-4.390625-15.59375-3.523437-.84375.105468-1.761718.164062-2.730468.230468-4.320313.28125-10.851563.710938-13.589844 7.164063-1.894531 4.464844-2.238281 10.078125-2.539062 15.03125-.128907 2.09375-.246094 4.074219-.46875 5.789063v.003906c-.183594 1.417968-.742188 5.734375 2.652343 8.183594 1.777344 1.28125 3.785157 1.316406 4.867188 1.335937l16.773437.292969c.382813.003906.789063.011718 1.21875.011718 2.0625 0 4.570313-.167968 6.914063-1.359374 2.757812-1.40625 4.90625-4.046876 6.050781-7.433594.625-1.847656.898438-3.707032 1.0625-5.464844l12.46875.144531c-1.621094 6.109375-3.53125 12.148438-5.738281 18.089844-23.453125 8.300781-48.777344 10.527344-73.316407 6.429687-3.285156-9.929687-12.335937-14.910156-19.832031-13.972656-9.730469 1.210938-12.921875 10.457032-12.699219 18.003906.21875 7.234376 4.539063 14.007813 10.753907 16.859376 2.148437.984374 4.476562 1.453124 6.792969 1.453124 5.085937 0 10.117187-2.257812 13.046874-6.28125 1.628907-2.238281 2.605469-4.910156 2.917969-7.746093 6.152344.933593 12.34375 1.484375 18.542969 1.671875l-3.390625 36.027344c-.210937 2.214843 1.417969 4.183593 3.632813 4.390624.128906.011719.257812.019532.382812.019532 2.058594 0 3.8125-1.566406 4.007812-3.65625l3.460938-36.742188c14.144531-.3125 28.226562-2.558594 41.804688-6.6875-8.648438 20.175782-20.246094 39.433594-31.511719 58.132813zm-57.429688-11.304688c-2.25-3.011719-2.761719-6.078125-1.480469-8.867187 1.464844-3.183594 5.074219-5.585938 8.785157-5.839844 2.351562-.160156 5.667969.464844 8.15625 4.371094 2.476562 3.878906 1.179687 9.984375-2.667969 12.566406-3.878906 2.605469-9.980469 1.542969-12.792969-2.230469zm-41.53125-67.730469c2.339844-2.160156 4.921875-1.878906 6.671875-1.265624 3.402344 1.195312 6.238282 4.484374 6.738282 7.816406.484374 3.238281-.585938 6.675781-2.726563 8.757812-2.125 2.066406-5.511719 2.835938-8.054687 1.832032-2.476563-.972657-4.359376-3.707032-5.03125-7.304688-.738282-3.945312.203124-7.804688 2.402343-9.835938zm88.597657-169.539062c1.09375-.476562 2.230468-.707031 3.375-.707031 2.882812 0 5.820312 1.464843 8.296874 4.234375 2.925782 3.269531 3.78125 8.25 2.082032 12.113281-1.699219 3.851563-6.027344 6.449219-10.058594 6.050781-4.75-.46875-8.980469-5.082031-9.429688-10.277344-.550781-6.351562 2.601563-10.0625 5.734376-11.414062zm28.585937 126.992188c-5.03125-.316407-9.625-5.375-9.457031-10.414063.164062-4.839844 2.730468-7.144531 4.851562-8.226563 1.542969-.785156 3.320313-1.171874 5.101563-1.171874 2.289062 0 4.589843.636718 6.421875 1.878906 1.960937 1.332031 4.207031 3.933594 3.761718 8.78125-.460937 5.019531-5.652343 9.460937-10.679687 9.152344zm-21.144531 41.34375c.011718-.128907.027344-.269532.046875-.433594.257812-1.984375.386719-4.097656.523437-6.332032.277344-4.515624.558594-9.183593 1.914063-12.371093.6875-1.621094 2.199219-1.976563 6.695312-2.269531 1.042969-.070313 2.121094-.140626 3.203125-.277344 4.386719-.546875 7.476563-.042969 9.175782 1.496094 2.566406 2.332031 2.460937 7.199218 2.164062 11.574218-.140625 2.035156-.273438 3.957032-.828125 5.597656-.457031 1.34375-1.230469 2.402344-2.078125 2.832032-1.035156.53125-2.78125.5-4.328125.472656zm-43.445313 30.082031c-2.054687 2.820312-6.523437 3.824219-9.960937 2.25-3.441406-1.582031-5.933594-5.597657-6.058594-9.773438-.167969-5.738281 1.886719-9.296875 5.636719-9.761719.289062-.035156.578125-.054687.875-.054687 4.246093 0 9.3125 3.648437 10.746093 10.113281.585938 2.652344.125 5.355469-1.238281 7.226563zm124.816407-21.566407c-3.382813 17.828126-10.058594 31.492188-19.832032 40.609376-10.441406 9.738281-24.992187 13.492187-36.699218 9.839843 2.859374-5.050781 5.644531-10.15625 8.304687-15.328125 0 0 .003906.003906.003906.003906 1.601563.226563 3.214844.335938 4.820313.335938 11.109375 0 22.035156-5.269531 28.804687-14.175781 7.746094-10.191407 9.453125-24.359375 4.339844-36.097657-1.804687-4.148437-4.09375-7.164062-6.992187-9.230468-2.722657-1.9375-5.917969-2.832032-8.960938-2.65625.820312-4.289063 1.5-8.605469 2.054688-12.9375.023437-.011719.050781-.015625.078124-.027344 8.101563-3.605469 18.148438 2.421875 22.101563 10.089844 3.785156 7.335937 4.414063 16.734375 1.976563 29.574218zm0 0"/><path d="m125.214844 189.214844c.675781.4375 1.441406.65625 2.210937.65625.832031 0 1.664063-.257813 2.367188-.769532 9.792969-7.109374 21.84375-10.699218 33.929687-10.105468 7.464844.363281 14.984375 2.390625 21.753906 5.863281l1.265626.652344c5.300781 2.757812 10.3125 5.367187 13.710937 2.105469 3.375-3.234376.839844-8.652344-.378906-11.257813-6.277344-13.417969-20.988281-23.039063-35.769531-23.394531-18.863282-.453125-36.765626 13.605468-40.816407 32.007812-.359375 1.636719.328125 3.324219 1.726563 4.242188zm38.21875-28.195313c.226562 0 .453125 0 .675781.007813 11.730469.28125 23.40625 7.847656 28.515625 18.441406-.796875-.398438-1.566406-.796875-2.164062-1.109375l-1.304688-.675781c-7.785156-3.988282-16.441406-6.320313-25.035156-6.742188-9.722656-.480468-19.429688 1.398438-28.242188 5.367188 6.074219-9.046875 16.722656-15.289063 27.554688-15.289063zm0 0"/></svg>