<svg id="Layer_1" enable-background="new 0 0 256 256" height="512" viewBox="0 0 256 256" width="512" xmlns="http://www.w3.org/2000/svg"><path d="m174.968 241.157h-144.024c-6.392 0-11.573-5.182-11.573-11.573v-135.023c0-6.392 5.182-11.573 11.573-11.573h144.024c6.392 0 11.573 5.182 11.573 11.573v135.023c0 6.392-5.182 11.573-11.573 11.573z" fill="#f9a7a7"/><path d="m75.217 82.988v51.439c6.937 0 6.937-5.787 13.873-5.787 6.937 0 6.937 5.787 13.873 5.787 6.932 0 6.932-5.787 13.864-5.787 6.934 0 6.934 5.787 13.868 5.787v-51.439z" fill="#f9cfcf"/><path d="m174.968 243.157h-144.025c-7.484 0-13.573-6.089-13.573-13.573v-135.022c0-7.484 6.089-13.573 13.573-13.573h144.024c7.484 0 13.573 6.089 13.573 13.573v135.022c.001 7.484-6.088 13.573-13.572 13.573zm-144.025-158.169c-5.279 0-9.573 4.295-9.573 9.573v135.022c0 5.278 4.294 9.573 9.573 9.573h144.024c5.279 0 9.573-4.295 9.573-9.573v-135.021c0-5.278-4.294-9.573-9.573-9.573h-144.024z" fill="#3762cc"/><path d="m74.022 226.231h-35.363c-2.663 0-4.822-2.159-4.822-4.822v-14.788c0-2.663 2.159-4.822 4.822-4.822h35.363c2.663 0 4.822 2.159 4.822 4.822v14.788c0 2.663-2.159 4.822-4.822 4.822z" fill="#e0ebfc"/><path d="m169.388 214.956h-20.484c-2.133 0-3.863-1.729-3.863-3.863 0-2.133 1.729-3.863 3.863-3.863h20.484c2.133 0 3.863 1.729 3.863 3.863 0 2.134-1.729 3.863-3.863 3.863z" fill="#e0ebfc"/><path d="m169.388 225.214h-20.484c-2.133 0-3.863-1.729-3.863-3.863 0-2.133 1.729-3.863 3.863-3.863h20.484c2.133 0 3.863 1.729 3.863 3.863 0 2.134-1.729 3.863-3.863 3.863z" fill="#e0ebfc"/><path d="m228.259 91.716h-118.918c-4.623 0-8.37-3.748-8.37-8.37v-7.791c0-4.623 3.748-8.37 8.37-8.37h118.918c4.623 0 8.37 3.748 8.37 8.37v7.791c.001 4.622-3.747 8.37-8.37 8.37z" fill="#4671c6"/><path d="m230.902 67.184h-124.204c0-28.907 23.434-52.341 52.341-52.341h19.522c28.907 0 52.341 23.434 52.341 52.341z" fill="#4671c6"/><g fill="#a4c9ff"><path d="m114.537 85.59c-1.665 0-3.015-1.208-3.015-2.697v-7.747c0-1.49 1.35-2.697 3.015-2.697s3.015 1.208 3.015 2.697v7.747c0 1.49-1.35 2.697-3.015 2.697z"/><path d="m141.669 85.59c-1.665 0-3.015-1.208-3.015-2.697v-7.747c0-1.49 1.35-2.697 3.015-2.697s3.015 1.208 3.015 2.697v7.747c-.001 1.49-1.351 2.697-3.015 2.697z"/><path d="m168.8 85.59c-1.665 0-3.015-1.208-3.015-2.697v-7.747c0-1.49 1.35-2.697 3.015-2.697s3.015 1.208 3.015 2.697v7.747c0 1.49-1.35 2.697-3.015 2.697z"/><path d="m195.932 85.59c-1.665 0-3.015-1.208-3.015-2.697v-7.747c0-1.49 1.35-2.697 3.015-2.697s3.015 1.208 3.015 2.697v7.747c0 1.49-1.35 2.697-3.015 2.697z"/><path d="m223.064 85.59c-1.665 0-3.015-1.208-3.015-2.697v-7.747c0-1.49 1.35-2.697 3.015-2.697s3.015 1.208 3.015 2.697v7.747c0 1.49-1.35 2.697-3.015 2.697z"/></g><path d="m224.078 105.74h-55.278-55.277c-2.622 0-4.703 2.187-4.611 4.808 2.325 66.696 59.889 20.422 59.889 20.422s57.564 46.273 59.889-20.422c.091-2.621-1.99-4.808-4.612-4.808z" fill="#4671c6"/><path d="m128.611 136.642c-8.546-3.853-12.35-13.903-8.497-22.449l30.946 13.952c-3.853 8.545-13.904 12.349-22.449 8.497z" fill="#e0ebfc"/><path d="m208.99 136.642c-8.546 3.853-18.596.048-22.449-8.497l30.946-13.952c3.853 8.545.049 18.596-8.497 22.449z" fill="#e0ebfc"/><path d="m128.611 136.642c-8.546-3.853-12.35-13.903-8.497-22.449l30.946 13.952c-3.853 8.545-13.904 12.349-22.449 8.497z" fill="#a4c9ff"/><path d="m208.99 136.642c-8.546 3.853-18.596.048-22.449-8.497l30.946-13.952c3.853 8.545.049 18.596-8.497 22.449z" fill="#a4c9ff"/><path d="m132.625 148.601c-3.374 0-6.666-.588-9.727-1.99-9.933-4.549-15.312-16.658-15.986-35.993-.063-1.825.599-3.552 1.864-4.862 1.255-1.3 2.941-2.016 4.746-2.016h110.555c1.805 0 3.491.716 4.747 2.017 1.265 1.311 1.927 3.037 1.863 4.862-.674 19.334-6.052 31.443-15.985 35.992-16.643 7.621-40.18-8.807-45.902-13.113-4.67 3.514-21.205 15.102-36.175 15.103zm36.175-19.631c.443 0 .887.147 1.252.44.264.212 26.563 21.093 42.989 13.562 8.44-3.868 13.032-14.801 13.648-32.493.026-.731-.238-1.422-.743-1.944-.495-.513-1.159-.795-1.869-.795h-110.554c-.71 0-1.374.282-1.869.795-.505.522-.769 1.213-.743 1.944.617 17.693 5.209 28.625 13.649 32.493 16.424 7.525 42.725-13.35 42.988-13.562.366-.293.809-.44 1.252-.44z" fill="#3762cc"/><path d="m228.259 93.716h-118.918c-5.718 0-10.37-4.652-10.37-10.37v-7.792c0-5.718 4.652-10.37 10.37-10.37h118.918c5.718 0 10.371 4.652 10.371 10.37v7.792c0 5.717-4.652 10.37-10.371 10.37zm-118.918-24.532c-3.513 0-6.37 2.857-6.37 6.37v7.792c0 3.513 2.857 6.37 6.37 6.37h118.918c3.513 0 6.371-2.857 6.371-6.37v-7.792c0-3.513-2.858-6.37-6.371-6.37z" fill="#3762cc"/><path d="m230.902 69.184h-124.204c-1.104 0-2-.896-2-2 0-29.964 24.377-54.341 54.341-54.341h19.521c29.964 0 54.341 24.377 54.341 54.341.001 1.104-.894 2-1.999 2zm-122.165-4h120.126c-1.053-26.835-23.213-48.341-50.302-48.341h-19.521c-27.089 0-49.25 21.506-50.303 48.341z" fill="#3762cc"/></svg>